<?xml version="1.0" encoding="UTF-8" standalone="no"?>
<!-- Creator: fig2dev Version 3.2.8b -->
<!-- CreationDate: 2024-04-24 00:42:48 -->
<!-- Magnification: 1 -->
<svg	xmlns="http://www.w3.org/2000/svg"
	xmlns:xlink="http://www.w3.org/1999/xlink"
	width="445pt" height="333pt"
	viewBox="-4802 -494 7406 5549">
<g fill="none">
<!-- Circle -->
<circle cx="0" cy="0" r="480"
	stroke="#000000" stroke-width="15px"/>
<!-- Circle -->
<circle cx="0" cy="480" r="48" fill="#000000"
	stroke="#000000" stroke-width="15px"/>
<!-- Line -->
<polyline points=" -240,0 -238,-7 -237,-11 -237,-14 -235,-20 -233,-31 -231,-42 -230,-46 -230,-48
 -229,-52 -227,-63 -225,-73 -224,-77 -223,-79 -222,-83 -220,-93 -218,-103 -217,-107
 -216,-109 -215,-113 -213,-123 -211,-133 -210,-137 -210,-138 -209,-142 -207,-152
 -205,-162 -204,-165 -203,-167 -202,-171 -200,-180 -198,-189 -197,-193 -196,-194
 -195,-197 -193,-206 -191,-215 -190,-218 -190,-219 -189,-223 -187,-231 -185,-239
 -184,-243 -183,-244 -182,-247 -180,-255 -178,-262 -177,-265 -176,-266 -175,-269
 -173,-276 -171,-283 -170,-285 -170,-286 -169,-289 -167,-295 -165,-301 -164,-303
 -163,-304 -162,-307 -160,-312 -158,-317 -157,-319 -156,-320 -155,-322 -153,-326
 -151,-330 -150,-332 -150,-333 -149,-334 -147,-338 -145,-342 -144,-343 -143,-344
 -142,-345 -140,-348 -138,-351 -137,-352 -136,-352 -135,-353 -133,-355 -131,-357
 -130,-357 -130,-358 -129,-358 -127,-359 -125,-360 -124,-360 -123,-360 -122,-360
 -120,-360 -118,-360 -117,-360 -116,-360 -115,-360 -113,-359 -111,-358 -110,-358
 -110,-357 -109,-357 -107,-355 -105,-353 -104,-352 -103,-352 -102,-351 -100,-348
 -98,-345 -97,-344 -96,-343 -95,-342 -93,-338 -91,-334 -90,-333 -90,-332 -89,-330
 -87,-326 -85,-322 -84,-320 -83,-319 -82,-317 -80,-312 -78,-307 -77,-304 -76,-303
 -75,-301 -73,-295 -71,-289 -70,-286 -70,-285 -69,-283 -67,-276 -65,-269 -64,-266
 -63,-265 -62,-262 -60,-255 -58,-247 -57,-244 -56,-243 -55,-239 -53,-231 -51,-223
 -50,-219 -50,-218 -49,-215 -47,-206 -45,-197 -44,-194 -43,-193 -42,-189 -40,-180
 -38,-171 -37,-167 -36,-165 -35,-162 -33,-152 -31,-142 -30,-138 -30,-137 -29,-133
 -27,-123 -25,-113 -24,-109 -23,-107 -22,-103 -20,-93 -18,-83 -17,-79 -16,-77
 -15,-73 -13,-63 -11,-52 -10,-48 -10,-46 -9,-42 -7,-31 -5,-20 -4,-16 -3,-15 -2,-10
 0,0 2,10 3,15 4,16 5,20 7,31 9,42 10,46 10,48 11,52 13,63 15,73 16,77 17,79 18,83
 20,93 22,103 23,107 24,109 25,113 27,123 29,133 30,137 30,138 31,142 33,152 35,162
 36,165 37,167 38,171 40,180 42,189 43,193 44,194 45,197 47,206 49,215 50,218
 50,219 51,223 53,231 55,239 56,243 57,244 58,247 60,255 62,262 63,265 64,266
 65,269 67,276 69,283 70,285 70,286 71,289 73,295 75,301 76,303 77,304 78,307
 80,312 82,317 83,319 84,320 85,322 87,326 89,330 90,332 90,333 91,334 93,338
 95,342 96,343 97,344 98,345 100,348 102,351 103,352 104,352 105,353 107,355 109,357
 110,357 110,358 111,358 113,359 115,360 116,360 117,360 118,360 120,360 122,360
 123,360 124,360 125,360 127,359 129,358 130,358 130,357 131,357 133,355 135,353
 136,352 137,352 138,351 140,348 142,345 143,344 144,343 145,342 147,338 149,334
 150,333 150,332 151,330 153,326 155,322 156,320 157,319 158,317 160,312 162,307
 163,304 164,303 165,301 167,295 169,289 170,286 170,285 171,283 173,276 175,269
 176,266 177,265 178,262 180,255 182,247 183,244 184,243 185,239 187,231 189,223
 190,219 190,218 191,215 193,206 195,197 196,194 197,193 198,189 200,180 202,171
 203,167 204,165 205,162 207,152 209,142 210,138 210,137 211,133 213,123 215,113
 216,109 217,107 218,103 220,93 222,83 223,79 224,77 225,73 227,63 229,52 230,48
 230,46 231,42 233,31 235,20 237,14 237,11 238,7 240,0"
	stroke="#000000" stroke-width="15px" stroke-linejoin="bevel"/>
<!-- Line -->
<polyline points=" -720,1680 -720,1440 -840,1410 -600,1350 -840,1290 -600,1230 -840,1170 -600,1110
 -840,1050 -600,990 -720,960 -720,720"
	stroke="#000000" stroke-width="15px"/>
<!-- Line -->
<polyline points=" -480,720 -960,720"
	stroke="#000000" stroke-width="15px"/>
<!-- Line -->
<polyline points=" -600,600 -840,600"
	stroke="#000000" stroke-width="15px"/>
<!-- Line -->
<polyline points=" -690,480 -750,480"
	stroke="#000000" stroke-width="15px"/>
<!-- Line -->
<polyline points=" 720,1680 720,1440 600,1410 840,1350 600,1290 840,1230 600,1170 840,1110 600,1050
 840,990 720,960 720,720"
	stroke="#000000" stroke-width="15px"/>
<!-- Line -->
<polyline points=" 960,720 480,720"
	stroke="#000000" stroke-width="15px"/>
<!-- Line -->
<polyline points=" 840,600 600,600"
	stroke="#000000" stroke-width="15px"/>
<!-- Line -->
<polyline points=" 750,480 690,480"
	stroke="#000000" stroke-width="15px"/>
<!-- Circle -->
<circle cx="0" cy="720" r="48" fill="#000000"
	stroke="#000000" stroke-width="15px"/>
<!-- Circle -->
<circle cx="-240" cy="1200" r="48" fill="#000000"
	stroke="#000000" stroke-width="15px"/>
<!-- Circle -->
<circle cx="240" cy="1200" r="48" fill="#000000"
	stroke="#000000" stroke-width="15px"/>
<!-- Circle -->
<circle cx="-720" cy="1680" r="48" fill="#000000"
	stroke="#000000" stroke-width="15px"/>
<!-- Circle -->
<circle cx="-240" cy="1680" r="48" fill="#000000"
	stroke="#000000" stroke-width="15px"/>
<!-- Circle -->
<circle cx="240" cy="1680" r="48" fill="#000000"
	stroke="#000000" stroke-width="15px"/>
<!-- Circle -->
<circle cx="720" cy="1680" r="48" fill="#000000"
	stroke="#000000" stroke-width="15px"/>
<!-- Circle -->
<circle cx="-480" cy="2160" r="48" fill="#000000"
	stroke="#000000" stroke-width="15px"/>
<!-- Circle -->
<circle cx="480" cy="2160" r="48" fill="#000000"
	stroke="#000000" stroke-width="15px"/>
<!-- Line -->
<defs>
<clipPath id="cp0">
	<path clip-rule="evenodd" d="M -4802,-494 H 2604 V 5055 H -4802 z
		M -137,1061 -177,1075 -191,1035 -254,1205 -235,1214z"/>
</clipPath>
</defs>
<polyline points=" 0,720 -240,1200" clip-path="url(#cp0)"
	stroke="#000000" stroke-width="15px"/>
<!-- Forward arrow to point -240,1200 -->
<polygon points=" -191,1035 -231,1182 -137,1061 -177,1075 -191,1035"
	stroke="#000000" stroke-width="8px" stroke-miterlimit="8" fill="#000000"/>
<!-- Line -->
<defs>
<clipPath id="cp1">
	<path clip-rule="evenodd" d="M -4802,-494 H 2604 V 5055 H -4802 z
		M -343,1819 -303,1805 -289,1845 -226,1675 -245,1666z"/>
</clipPath>
</defs>
<polyline points=" -480,2160 -240,1680" clip-path="url(#cp1)"
	stroke="#000000" stroke-width="15px"/>
<!-- Forward arrow to point -240,1680 -->
<polygon points=" -289,1845 -249,1698 -343,1819 -303,1805 -289,1845"
	stroke="#000000" stroke-width="8px" stroke-miterlimit="8" fill="#000000"/>
<!-- Line -->
<defs>
<clipPath id="cp2">
	<path clip-rule="evenodd" d="M -4802,-494 H 2604 V 5055 H -4802 z
		M 617,1819 657,1805 671,1845 734,1675 715,1666z"/>
</clipPath>
</defs>
<polyline points=" 480,2160 720,1680" clip-path="url(#cp2)"
	stroke="#000000" stroke-width="15px"/>
<!-- Forward arrow to point 720,1680 -->
<polygon points=" 671,1845 711,1698 617,1819 657,1805 671,1845"
	stroke="#000000" stroke-width="8px" stroke-miterlimit="8" fill="#000000"/>
<!-- Line -->
<polyline points=" -240,1200 -240,1680"
	stroke="#000000" stroke-width="15px"/>
<!-- Line -->
<polyline points=" 240,1200 240,1680"
	stroke="#000000" stroke-width="15px"/>
<!-- Line -->
<polyline points=" -60,840 -60,2040"
	stroke="#000000" stroke-width="15px" stroke-dasharray="10 20"/>
<!-- Line -->
<polyline points=" -420,2040 540,2040"
	stroke="#000000" stroke-width="15px" stroke-dasharray="10 20"/>
<!-- Line -->
<polyline points=" -961,3572 -962,3564 -962,3554 -963,3542 -963,3528 -964,3513 -965,3497 -966,3481
 -967,3465 -968,3450 -969,3435 -970,3423 -972,3410 -973,3397 -975,3384 -976,3370
 -978,3356 -980,3343 -982,3329 -984,3317 -986,3304 -987,3293 -989,3282 -992,3269
 -994,3255 -997,3241 -1000,3227 -1003,3213 -1006,3199 -1009,3186 -1012,3173 -1015,3161
 -1018,3150 -1021,3139 -1024,3127 -1027,3116 -1031,3104 -1034,3092 -1038,3080
 -1041,3069 -1045,3059 -1048,3049 -1052,3039 -1056,3028 -1060,3016 -1065,3004
 -1070,2992 -1075,2980 -1080,2969 -1085,2958 -1089,2949 -1094,2939 -1098,2929
 -1103,2919 -1109,2909 -1114,2899 -1119,2890 -1124,2881 -1128,2873 -1133,2865
 -1138,2857 -1143,2849 -1148,2841 -1153,2832 -1159,2825 -1163,2818 -1168,2811
 -1173,2805 -1178,2798 -1183,2791 -1189,2784 -1194,2778 -1199,2772 -1204,2766
 -1209,2761 -1215,2754 -1222,2746 -1230,2739 -1237,2732 -1244,2725 -1250,2720
 -1257,2714 -1264,2709 -1271,2703 -1278,2698 -1285,2693 -1292,2688 -1299,2684
 -1306,2680 -1313,2676 -1320,2672 -1327,2668 -1334,2665 -1341,2662 -1348,2660
 -1355,2657 -1362,2654 -1369,2652 -1376,2650 -1384,2648 -1392,2646 -1400,2645
 -1406,2643 -1418,2641"
	stroke="#000000" stroke-width="15px" stroke-linejoin="bevel"/>
<!-- Line -->
<polyline points=" -960,2400 -960,3600"
	stroke="#000000" stroke-width="45px"/>
<!-- Line -->
<rect x="-1440" y="2400" width="720" height="1200"
	stroke="#000000" stroke-width="15px"/>
<!-- Line -->
<polyline points=" 961,3572 962,3564 962,3554 963,3542 963,3528 964,3513 965,3497 966,3481 967,3465
 968,3450 969,3435 970,3423 972,3410 973,3397 975,3384 976,3370 978,3356 980,3343
 982,3329 984,3317 986,3304 987,3293 989,3282 992,3269 994,3255 997,3241 1000,3227
 1003,3213 1006,3199 1009,3186 1012,3173 1015,3161 1018,3150 1021,3139 1024,3127
 1027,3116 1031,3104 1034,3092 1038,3080 1041,3069 1045,3059 1048,3049 1052,3039
 1056,3028 1060,3016 1065,3004 1070,2992 1075,2980 1080,2969 1085,2958 1089,2949
 1094,2939 1098,2929 1103,2919 1109,2909 1114,2899 1119,2890 1124,2881 1128,2873
 1133,2865 1138,2857 1143,2849 1148,2841 1153,2832 1159,2825 1163,2818 1168,2811
 1173,2805 1178,2798 1183,2791 1189,2784 1194,2778 1199,2772 1204,2766 1209,2761
 1215,2754 1222,2746 1230,2739 1237,2732 1244,2725 1250,2720 1257,2714 1264,2709
 1271,2703 1278,2698 1285,2693 1292,2688 1299,2684 1306,2680 1313,2676 1320,2672
 1327,2668 1334,2665 1341,2662 1348,2660 1355,2657 1362,2654 1369,2652 1376,2650
 1384,2648 1392,2646 1400,2645 1406,2643 1418,2641"
	stroke="#000000" stroke-width="15px" stroke-linejoin="bevel"/>
<!-- Line -->
<polyline points=" 960,2400 960,3600"
	stroke="#000000" stroke-width="45px"/>
<!-- Line -->
<rect x="720" y="2400" width="720" height="1200"
	stroke="#000000" stroke-width="15px"/>
<!-- Line -->
<polyline points=" -960,3840 -960,3900 -1320,4020 -600,4140 -960,4260 -960,4320"
	stroke="#000000" stroke-width="15px"/>
<!-- Line -->
<polyline points=" 960,3840 960,3900 600,4020 1320,4140 960,4260 960,4320"
	stroke="#000000" stroke-width="15px"/>
<!-- Circle -->
<circle cx="-960" cy="4560" r="48" fill="#000000"
	stroke="#000000" stroke-width="15px"/>
<!-- Circle -->
<circle cx="960" cy="4560" r="48" fill="#000000"
	stroke="#000000" stroke-width="15px"/>
<!-- Line -->
<polyline points=" -1680,4560 1680,4560"
	stroke="#000000" stroke-width="15px" stroke-dasharray="60 60"/>
<!-- Line -->
<polyline points=" -960,4320 -960,4560"
	stroke="#000000" stroke-width="15px"/>
<!-- Line -->
<polyline points=" 960,4320 960,4560"
	stroke="#000000" stroke-width="15px"/>
<!-- Text -->
<text xml:space="preserve" x="-1680" y="4320" fill="#000000" font-family="Times" font-style="normal" font-weight="normal" font-size="288" text-anchor="end">reference</text>
<!-- Text -->
<text xml:space="preserve" x="-1680" y="4560" fill="#000000" font-family="Times" font-style="normal" font-weight="normal" font-size="288" text-anchor="end">plane</text>
<!-- Text -->
<text xml:space="preserve" x="-960" y="5040" fill="#000000" font-family="Times" font-style="normal" font-weight="normal" font-size="288" text-anchor="middle">Probe 1</text>
<!-- Text -->
<text xml:space="preserve" x="960" y="5040" fill="#000000" font-family="Times" font-style="normal" font-weight="normal" font-size="288" text-anchor="middle">Probe 2</text>
<!-- Line -->
<polyline points=" 0,480 0,720"
	stroke="#000000" stroke-width="15px"/>
<!-- Line -->
<polyline points=" -480,2160 -960,2160 -960,2400"
	stroke="#000000" stroke-width="15px"/>
<!-- Line -->
<polyline points=" 480,2160 960,2160 960,2400"
	stroke="#000000" stroke-width="15px"/>
<!-- Line -->
<defs>
<clipPath id="cp3">
	<path clip-rule="evenodd" d="M -4802,-494 H 2604 V 5055 H -4802 z
		M -1510,2670 -1540,2640 -1510,2610 -1690,2630 -1690,2651z"/>
</clipPath>
</defs>
<polyline points=" -1440,2640 -1680,2640" clip-path="url(#cp3)"
	stroke="#000000" stroke-width="15px"/>
<!-- Forward arrow to point -1680,2640 -->
<polygon points=" -1510,2610 -1660,2640 -1510,2670 -1540,2640 -1510,2610"
	stroke="#000000" stroke-width="8px" stroke-miterlimit="8" fill="#000000"/>
<!-- Line -->
<defs>
<clipPath id="cp4">
	<path clip-rule="evenodd" d="M -4802,-494 H 2604 V 5055 H -4802 z
		M 1510,2610 1540,2640 1510,2670 1691,2651 1691,2630z"/>
</clipPath>
</defs>
<polyline points=" 1440,2640 1680,2640" clip-path="url(#cp4)"
	stroke="#000000" stroke-width="15px"/>
<!-- Forward arrow to point 1680,2640 -->
<polygon points=" 1510,2670 1660,2640 1510,2610 1540,2640 1510,2670"
	stroke="#000000" stroke-width="8px" stroke-miterlimit="8" fill="#000000"/>
<!-- Line -->
<polyline points=" -960,3600 -960,3840"
	stroke="#000000" stroke-width="15px"/>
<!-- Line -->
<polyline points=" 960,3600 960,3840"
	stroke="#000000" stroke-width="15px"/>
<!-- Text -->
<text xml:space="preserve" x="-1728" y="2687" fill="#000000" font-family="Times" font-style="normal" font-weight="normal" font-size="288" text-anchor="end">b1</text>
<!-- Text -->
<text xml:space="preserve" x="1728" y="2687" fill="#000000" font-family="Times" font-style="normal" font-weight="normal" font-size="288" text-anchor="start">b2</text>
</g>
</svg>
