<?xml version="1.0" encoding="UTF-8" standalone="no"?>
<!-- Creator: fig2dev Version 3.2.8b -->
<!-- CreationDate: 2024-04-24 00:42:48 -->
<!-- Magnification: 1 -->
<svg	xmlns="http://www.w3.org/2000/svg"
	xmlns:xlink="http://www.w3.org/1999/xlink"
	width="445pt" height="420pt"
	viewBox="-4802 -494 7406 6989">
<g fill="none">
<!-- Circle -->
<circle cx="0" cy="0" r="480"
	stroke="#000000" stroke-width="15px"/>
<!-- Circle -->
<circle cx="0" cy="480" r="48" fill="#000000"
	stroke="#000000" stroke-width="15px"/>
<!-- Line -->
<polyline points=" -240,0 -238,-7 -237,-11 -237,-14 -235,-20 -233,-31 -231,-42 -230,-46 -230,-48
 -229,-52 -227,-63 -225,-73 -224,-77 -223,-79 -222,-83 -220,-93 -218,-103 -217,-107
 -216,-109 -215,-113 -213,-123 -211,-133 -210,-137 -210,-138 -209,-142 -207,-152
 -205,-162 -204,-165 -203,-167 -202,-171 -200,-180 -198,-189 -197,-193 -196,-194
 -195,-197 -193,-206 -191,-215 -190,-218 -190,-219 -189,-223 -187,-231 -185,-239
 -184,-243 -183,-244 -182,-247 -180,-255 -178,-262 -177,-265 -176,-266 -175,-269
 -173,-276 -171,-283 -170,-285 -170,-286 -169,-289 -167,-295 -165,-301 -164,-303
 -163,-304 -162,-307 -160,-312 -158,-317 -157,-319 -156,-320 -155,-322 -153,-326
 -151,-330 -150,-332 -150,-333 -149,-334 -147,-338 -145,-342 -144,-343 -143,-344
 -142,-345 -140,-348 -138,-351 -137,-352 -136,-352 -135,-353 -133,-355 -131,-357
 -130,-357 -130,-358 -129,-358 -127,-359 -125,-360 -124,-360 -123,-360 -122,-360
 -120,-360 -118,-360 -117,-360 -116,-360 -115,-360 -113,-359 -111,-358 -110,-358
 -110,-357 -109,-357 -107,-355 -105,-353 -104,-352 -103,-352 -102,-351 -100,-348
 -98,-345 -97,-344 -96,-343 -95,-342 -93,-338 -91,-334 -90,-333 -90,-332 -89,-330
 -87,-326 -85,-322 -84,-320 -83,-319 -82,-317 -80,-312 -78,-307 -77,-304 -76,-303
 -75,-301 -73,-295 -71,-289 -70,-286 -70,-285 -69,-283 -67,-276 -65,-269 -64,-266
 -63,-265 -62,-262 -60,-255 -58,-247 -57,-244 -56,-243 -55,-239 -53,-231 -51,-223
 -50,-219 -50,-218 -49,-215 -47,-206 -45,-197 -44,-194 -43,-193 -42,-189 -40,-180
 -38,-171 -37,-167 -36,-165 -35,-162 -33,-152 -31,-142 -30,-138 -30,-137 -29,-133
 -27,-123 -25,-113 -24,-109 -23,-107 -22,-103 -20,-93 -18,-83 -17,-79 -16,-77
 -15,-73 -13,-63 -11,-52 -10,-48 -10,-46 -9,-42 -7,-31 -5,-20 -4,-16 -3,-15 -2,-10
 0,0 2,10 3,15 4,16 5,20 7,31 9,42 10,46 10,48 11,52 13,63 15,73 16,77 17,79 18,83
 20,93 22,103 23,107 24,109 25,113 27,123 29,133 30,137 30,138 31,142 33,152 35,162
 36,165 37,167 38,171 40,180 42,189 43,193 44,194 45,197 47,206 49,215 50,218
 50,219 51,223 53,231 55,239 56,243 57,244 58,247 60,255 62,262 63,265 64,266
 65,269 67,276 69,283 70,285 70,286 71,289 73,295 75,301 76,303 77,304 78,307
 80,312 82,317 83,319 84,320 85,322 87,326 89,330 90,332 90,333 91,334 93,338
 95,342 96,343 97,344 98,345 100,348 102,351 103,352 104,352 105,353 107,355 109,357
 110,357 110,358 111,358 113,359 115,360 116,360 117,360 118,360 120,360 122,360
 123,360 124,360 125,360 127,359 129,358 130,358 130,357 131,357 133,355 135,353
 136,352 137,352 138,351 140,348 142,345 143,344 144,343 145,342 147,338 149,334
 150,333 150,332 151,330 153,326 155,322 156,320 157,319 158,317 160,312 162,307
 163,304 164,303 165,301 167,295 169,289 170,286 170,285 171,283 173,276 175,269
 176,266 177,265 178,262 180,255 182,247 183,244 184,243 185,239 187,231 189,223
 190,219 190,218 191,215 193,206 195,197 196,194 197,193 198,189 200,180 202,171
 203,167 204,165 205,162 207,152 209,142 210,138 210,137 211,133 213,123 215,113
 216,109 217,107 218,103 220,93 222,83 223,79 224,77 225,73 227,63 229,52 230,48
 230,46 231,42 233,31 235,20 237,14 237,11 238,7 240,0"
	stroke="#000000" stroke-width="15px" stroke-linejoin="bevel"/>
<!-- Line -->
<polyline points=" -1,748 -2,756 -2,766 -3,778 -3,792 -4,807 -5,823 -6,839 -7,855 -8,870 -9,885
 -10,897 -12,910 -13,923 -15,936 -16,950 -18,964 -20,977 -22,991 -24,1003 -26,1016
 -27,1027 -29,1038 -32,1051 -34,1065 -37,1079 -40,1093 -43,1107 -46,1121 -49,1134
 -52,1147 -55,1159 -58,1170 -61,1181 -64,1193 -67,1204 -71,1216 -74,1228 -78,1240
 -81,1251 -85,1261 -88,1271 -92,1281 -96,1292 -100,1304 -105,1316 -110,1328 -115,1340
 -120,1351 -125,1362 -129,1372 -134,1381 -138,1391 -143,1401 -149,1411 -154,1421
 -159,1430 -164,1439 -168,1447 -173,1455 -178,1463 -183,1471 -188,1479 -193,1488
 -199,1495 -203,1502 -208,1509 -213,1515 -218,1522 -223,1529 -229,1536 -234,1542
 -239,1548 -244,1554 -249,1560 -255,1566 -262,1574 -270,1581 -277,1588 -284,1595
 -290,1600 -297,1606 -304,1611 -311,1617 -318,1622 -325,1627 -332,1632 -339,1636
 -346,1640 -353,1644 -360,1648 -367,1652 -374,1655 -381,1658 -388,1660 -395,1663
 -402,1666 -409,1668 -416,1670 -424,1672 -432,1674 -440,1675 -446,1677 -458,1679
"
	stroke="#000000" stroke-width="15px" stroke-linejoin="bevel"/>
<!-- Line -->
<polyline points=" 0,720 0,1920"
	stroke="#000000" stroke-width="45px"/>
<!-- Line -->
<rect x="-480" y="720" width="720" height="1200"
	stroke="#000000" stroke-width="15px"/>
<!-- Line -->
<polyline points=" -720,3120 -720,2880 -840,2850 -600,2790 -840,2730 -600,2670 -840,2610 -600,2550
 -840,2490 -600,2430 -720,2400 -720,2160"
	stroke="#000000" stroke-width="15px"/>
<!-- Line -->
<polyline points=" -480,2160 -960,2160"
	stroke="#000000" stroke-width="15px"/>
<!-- Line -->
<polyline points=" -600,2040 -840,2040"
	stroke="#000000" stroke-width="15px"/>
<!-- Line -->
<polyline points=" -690,1920 -750,1920"
	stroke="#000000" stroke-width="15px"/>
<!-- Line -->
<polyline points=" 720,3120 720,2880 600,2850 840,2790 600,2730 840,2670 600,2610 840,2550 600,2490
 840,2430 720,2400 720,2160"
	stroke="#000000" stroke-width="15px"/>
<!-- Line -->
<polyline points=" 960,2160 480,2160"
	stroke="#000000" stroke-width="15px"/>
<!-- Line -->
<polyline points=" 840,2040 600,2040"
	stroke="#000000" stroke-width="15px"/>
<!-- Line -->
<polyline points=" 750,1920 690,1920"
	stroke="#000000" stroke-width="15px"/>
<!-- Circle -->
<circle cx="0" cy="2160" r="48" fill="#000000"
	stroke="#000000" stroke-width="15px"/>
<!-- Circle -->
<circle cx="-240" cy="2640" r="48" fill="#000000"
	stroke="#000000" stroke-width="15px"/>
<!-- Circle -->
<circle cx="240" cy="2640" r="48" fill="#000000"
	stroke="#000000" stroke-width="15px"/>
<!-- Circle -->
<circle cx="-720" cy="3120" r="48" fill="#000000"
	stroke="#000000" stroke-width="15px"/>
<!-- Circle -->
<circle cx="-240" cy="3120" r="48" fill="#000000"
	stroke="#000000" stroke-width="15px"/>
<!-- Circle -->
<circle cx="240" cy="3120" r="48" fill="#000000"
	stroke="#000000" stroke-width="15px"/>
<!-- Circle -->
<circle cx="720" cy="3120" r="48" fill="#000000"
	stroke="#000000" stroke-width="15px"/>
<!-- Circle -->
<circle cx="-480" cy="3600" r="48" fill="#000000"
	stroke="#000000" stroke-width="15px"/>
<!-- Circle -->
<circle cx="480" cy="3600" r="48" fill="#000000"
	stroke="#000000" stroke-width="15px"/>
<!-- Line -->
<defs>
<clipPath id="cp0">
	<path clip-rule="evenodd" d="M -4802,-494 H 2604 V 6495 H -4802 z
		M -137,2501 -177,2515 -191,2475 -254,2645 -235,2654z"/>
</clipPath>
</defs>
<polyline points=" 0,2160 -240,2640" clip-path="url(#cp0)"
	stroke="#000000" stroke-width="15px"/>
<!-- Forward arrow to point -240,2640 -->
<polygon points=" -191,2475 -231,2622 -137,2501 -177,2515 -191,2475"
	stroke="#000000" stroke-width="8px" stroke-miterlimit="8" fill="#000000"/>
<!-- Line -->
<defs>
<clipPath id="cp1">
	<path clip-rule="evenodd" d="M -4802,-494 H 2604 V 6495 H -4802 z
		M -343,3259 -303,3245 -289,3285 -226,3115 -245,3106z"/>
</clipPath>
</defs>
<polyline points=" -480,3600 -240,3120" clip-path="url(#cp1)"
	stroke="#000000" stroke-width="15px"/>
<!-- Forward arrow to point -240,3120 -->
<polygon points=" -289,3285 -249,3138 -343,3259 -303,3245 -289,3285"
	stroke="#000000" stroke-width="8px" stroke-miterlimit="8" fill="#000000"/>
<!-- Line -->
<defs>
<clipPath id="cp2">
	<path clip-rule="evenodd" d="M -4802,-494 H 2604 V 6495 H -4802 z
		M 617,3259 657,3245 671,3285 734,3115 715,3106z"/>
</clipPath>
</defs>
<polyline points=" 480,3600 720,3120" clip-path="url(#cp2)"
	stroke="#000000" stroke-width="15px"/>
<!-- Forward arrow to point 720,3120 -->
<polygon points=" 671,3285 711,3138 617,3259 657,3245 671,3285"
	stroke="#000000" stroke-width="8px" stroke-miterlimit="8" fill="#000000"/>
<!-- Line -->
<polyline points=" -240,2640 -240,3120"
	stroke="#000000" stroke-width="15px"/>
<!-- Line -->
<polyline points=" 240,2640 240,3120"
	stroke="#000000" stroke-width="15px"/>
<!-- Line -->
<polyline points=" -60,2280 -60,3480"
	stroke="#000000" stroke-width="15px" stroke-dasharray="10 20"/>
<!-- Line -->
<polyline points=" -420,3480 540,3480"
	stroke="#000000" stroke-width="15px" stroke-dasharray="10 20"/>
<!-- Line -->
<polyline points=" -961,5012 -962,5004 -962,4994 -963,4982 -963,4968 -964,4953 -965,4937 -966,4921
 -967,4905 -968,4890 -969,4875 -970,4863 -972,4850 -973,4837 -975,4824 -976,4810
 -978,4796 -980,4783 -982,4769 -984,4757 -986,4744 -987,4733 -989,4722 -992,4709
 -994,4695 -997,4681 -1000,4667 -1003,4653 -1006,4639 -1009,4626 -1012,4613 -1015,4601
 -1018,4590 -1021,4579 -1024,4567 -1027,4556 -1031,4544 -1034,4532 -1038,4520
 -1041,4509 -1045,4499 -1048,4489 -1052,4479 -1056,4468 -1060,4456 -1065,4444
 -1070,4432 -1075,4420 -1080,4409 -1085,4398 -1089,4389 -1094,4379 -1098,4369
 -1103,4359 -1109,4349 -1114,4339 -1119,4330 -1124,4321 -1128,4313 -1133,4305
 -1138,4297 -1143,4289 -1148,4281 -1153,4272 -1159,4265 -1163,4258 -1168,4251
 -1173,4245 -1178,4238 -1183,4231 -1189,4224 -1194,4218 -1199,4212 -1204,4206
 -1209,4201 -1215,4194 -1222,4186 -1230,4179 -1237,4172 -1244,4165 -1250,4160
 -1257,4154 -1264,4149 -1271,4143 -1278,4138 -1285,4133 -1292,4128 -1299,4124
 -1306,4120 -1313,4116 -1320,4112 -1327,4108 -1334,4105 -1341,4102 -1348,4100
 -1355,4097 -1362,4094 -1369,4092 -1376,4090 -1384,4088 -1392,4086 -1400,4085
 -1406,4083 -1418,4081"
	stroke="#000000" stroke-width="15px" stroke-linejoin="bevel"/>
<!-- Line -->
<polyline points=" -960,3840 -960,5040"
	stroke="#000000" stroke-width="45px"/>
<!-- Line -->
<rect x="-1440" y="3840" width="720" height="1200"
	stroke="#000000" stroke-width="15px"/>
<!-- Line -->
<polyline points=" 961,5012 962,5004 962,4994 963,4982 963,4968 964,4953 965,4937 966,4921 967,4905
 968,4890 969,4875 970,4863 972,4850 973,4837 975,4824 976,4810 978,4796 980,4783
 982,4769 984,4757 986,4744 987,4733 989,4722 992,4709 994,4695 997,4681 1000,4667
 1003,4653 1006,4639 1009,4626 1012,4613 1015,4601 1018,4590 1021,4579 1024,4567
 1027,4556 1031,4544 1034,4532 1038,4520 1041,4509 1045,4499 1048,4489 1052,4479
 1056,4468 1060,4456 1065,4444 1070,4432 1075,4420 1080,4409 1085,4398 1089,4389
 1094,4379 1098,4369 1103,4359 1109,4349 1114,4339 1119,4330 1124,4321 1128,4313
 1133,4305 1138,4297 1143,4289 1148,4281 1153,4272 1159,4265 1163,4258 1168,4251
 1173,4245 1178,4238 1183,4231 1189,4224 1194,4218 1199,4212 1204,4206 1209,4201
 1215,4194 1222,4186 1230,4179 1237,4172 1244,4165 1250,4160 1257,4154 1264,4149
 1271,4143 1278,4138 1285,4133 1292,4128 1299,4124 1306,4120 1313,4116 1320,4112
 1327,4108 1334,4105 1341,4102 1348,4100 1355,4097 1362,4094 1369,4092 1376,4090
 1384,4088 1392,4086 1400,4085 1406,4083 1418,4081"
	stroke="#000000" stroke-width="15px" stroke-linejoin="bevel"/>
<!-- Line -->
<polyline points=" 960,3840 960,5040"
	stroke="#000000" stroke-width="45px"/>
<!-- Line -->
<rect x="720" y="3840" width="720" height="1200"
	stroke="#000000" stroke-width="15px"/>
<!-- Line -->
<polyline points=" -960,5280 -960,5340 -1320,5460 -600,5580 -960,5700 -960,5760"
	stroke="#000000" stroke-width="15px"/>
<!-- Line -->
<polyline points=" 960,5280 960,5340 600,5460 1320,5580 960,5700 960,5760"
	stroke="#000000" stroke-width="15px"/>
<!-- Circle -->
<circle cx="-960" cy="6000" r="48" fill="#000000"
	stroke="#000000" stroke-width="15px"/>
<!-- Circle -->
<circle cx="960" cy="6000" r="48" fill="#000000"
	stroke="#000000" stroke-width="15px"/>
<!-- Line -->
<polyline points=" -1680,6000 1680,6000"
	stroke="#000000" stroke-width="15px" stroke-dasharray="60 60"/>
<!-- Line -->
<polyline points=" -960,5760 -960,6000"
	stroke="#000000" stroke-width="15px"/>
<!-- Line -->
<polyline points=" 960,5760 960,6000"
	stroke="#000000" stroke-width="15px"/>
<!-- Text -->
<text xml:space="preserve" x="-1680" y="5760" fill="#000000" font-family="Times" font-style="normal" font-weight="normal" font-size="288" text-anchor="end">reference</text>
<!-- Text -->
<text xml:space="preserve" x="-1680" y="6000" fill="#000000" font-family="Times" font-style="normal" font-weight="normal" font-size="288" text-anchor="end">plane</text>
<!-- Text -->
<text xml:space="preserve" x="-960" y="6480" fill="#000000" font-family="Times" font-style="normal" font-weight="normal" font-size="288" text-anchor="middle">Probe 1</text>
<!-- Text -->
<text xml:space="preserve" x="960" y="6480" fill="#000000" font-family="Times" font-style="normal" font-weight="normal" font-size="288" text-anchor="middle">Probe 2</text>
<!-- Line -->
<polyline points=" 0,480 0,720"
	stroke="#000000" stroke-width="15px"/>
<!-- Line -->
<defs>
<clipPath id="cp3">
	<path clip-rule="evenodd" d="M -4802,-494 H 2604 V 6495 H -4802 z
		M -550,1710 -580,1680 -550,1650 -730,1670 -730,1691z"/>
</clipPath>
</defs>
<polyline points=" -480,1680 -720,1680" clip-path="url(#cp3)"
	stroke="#000000" stroke-width="15px"/>
<!-- Forward arrow to point -720,1680 -->
<polygon points=" -550,1650 -700,1680 -550,1710 -580,1680 -550,1650"
	stroke="#000000" stroke-width="8px" stroke-miterlimit="8" fill="#000000"/>
<!-- Line -->
<polyline points=" 0,1920 0,2160"
	stroke="#000000" stroke-width="15px"/>
<!-- Line -->
<polyline points=" -480,3600 -960,3600 -960,3840"
	stroke="#000000" stroke-width="15px"/>
<!-- Line -->
<polyline points=" 480,3600 960,3600 960,3840"
	stroke="#000000" stroke-width="15px"/>
<!-- Line -->
<defs>
<clipPath id="cp4">
	<path clip-rule="evenodd" d="M -4802,-494 H 2604 V 6495 H -4802 z
		M -1510,4110 -1540,4080 -1510,4050 -1690,4070 -1690,4091z"/>
</clipPath>
</defs>
<polyline points=" -1440,4080 -1680,4080" clip-path="url(#cp4)"
	stroke="#000000" stroke-width="15px"/>
<!-- Forward arrow to point -1680,4080 -->
<polygon points=" -1510,4050 -1660,4080 -1510,4110 -1540,4080 -1510,4050"
	stroke="#000000" stroke-width="8px" stroke-miterlimit="8" fill="#000000"/>
<!-- Line -->
<defs>
<clipPath id="cp5">
	<path clip-rule="evenodd" d="M -4802,-494 H 2604 V 6495 H -4802 z
		M 1510,4050 1540,4080 1510,4110 1691,4091 1691,4070z"/>
</clipPath>
</defs>
<polyline points=" 1440,4080 1680,4080" clip-path="url(#cp5)"
	stroke="#000000" stroke-width="15px"/>
<!-- Forward arrow to point 1680,4080 -->
<polygon points=" 1510,4110 1660,4080 1510,4050 1540,4080 1510,4110"
	stroke="#000000" stroke-width="8px" stroke-miterlimit="8" fill="#000000"/>
<!-- Line -->
<polyline points=" -960,5040 -960,5280"
	stroke="#000000" stroke-width="15px"/>
<!-- Line -->
<polyline points=" 960,5040 960,5280"
	stroke="#000000" stroke-width="15px"/>
<!-- Text -->
<text xml:space="preserve" x="-768" y="1728" fill="#000000" font-family="Times" font-style="normal" font-weight="normal" font-size="288" text-anchor="end">r</text>
<!-- Text -->
<text xml:space="preserve" x="-1728" y="4128" fill="#000000" font-family="Times" font-style="normal" font-weight="normal" font-size="288" text-anchor="end">b1</text>
<!-- Text -->
<text xml:space="preserve" x="1728" y="4128" fill="#000000" font-family="Times" font-style="normal" font-weight="normal" font-size="288" text-anchor="start">b2</text>
</g>
</svg>
